<?xml version="1.0" standalone="no"?><svg xmlns="http://www.w3.org/2000/svg" viewBox="0 0 1440 320"><path fill="#e7008a" fill-opacity="1" d="M0,160L10.4,186.7C20.9,213,42,267,63,261.3C83.5,256,104,192,125,149.3C146.1,107,167,85,188,85.3C208.7,85,230,107,250,101.3C271.3,96,292,64,313,48C333.9,32,355,32,376,32C396.5,32,417,32,438,58.7C459.1,85,480,139,501,170.7C521.7,203,543,213,563,186.7C584.3,160,605,96,626,101.3C647,107,668,181,689,224C709.6,267,730,277,751,272C772.2,267,793,245,814,208C834.8,171,856,117,877,85.3C897.4,53,918,43,939,48C960,53,981,75,1002,122.7C1022.6,171,1043,245,1064,261.3C1085.2,277,1106,235,1127,181.3C1147.8,128,1169,64,1190,74.7C1210.4,85,1231,171,1252,202.7C1273,235,1294,213,1315,197.3C1335.7,181,1357,171,1377,154.7C1398.3,139,1419,117,1430,106.7L1440,96L1440,320L1429.6,320C1419.1,320,1398,320,1377,320C1356.5,320,1336,320,1315,320C1293.9,320,1273,320,1252,320C1231.3,320,1210,320,1190,320C1168.7,320,1148,320,1127,320C1106.1,320,1085,320,1064,320C1043.5,320,1023,320,1002,320C980.9,320,960,320,939,320C918.3,320,897,320,877,320C855.7,320,835,320,814,320C793,320,772,320,751,320C730.4,320,710,320,689,320C667.8,320,647,320,626,320C605.2,320,584,320,563,320C542.6,320,522,320,501,320C480,320,459,320,438,320C417.4,320,397,320,376,320C354.8,320,334,320,313,320C292.2,320,271,320,250,320C229.6,320,209,320,188,320C167,320,146,320,125,320C104.3,320,83,320,63,320C41.7,320,21,320,10,320L0,320Z"></path></svg>